<svg xmlns="http://www.w3.org/2000/svg" height="48" viewBox="0 -960 960 960" width="48"  style="fill: #ae3923;"><path d="M820.435-37 689.087-167.913q-28.348 19.043-60.348 33.217-31.999 14.173-68.216 22.043v-73.304q20.217-5.87 40.347-12.761 20.13-6.891 37.478-21.065l-157.825-159.39v261.13l-223.61-224.609H85.957v-275.261h159.347L28.696-838.348l49.174-49.174L870.173-87.739 820.435-37Zm-19.087-245.304-50.609-51.739Q769.87-367.609 779-404.379q9.13-36.771 9.13-77.056 0-106.104-62.978-189.356T560.523-776.608v-73.304q130.521 29.696 214.434 132.543 83.913 102.848 83.913 235.934 0 54.131-14.914 104.413-14.913 50.283-42.608 94.718ZM659.262-425.521l-98.739-99.869v-123.306q49.565 24.131 79.195 69.413Q669.349-534 669.349-480q0 14.652-2.413 28.022t-7.674 26.457Zm-178.739-181L364.435-725.304l116.088-116.653v235.436Zm-83.74 286.042v-143.13l-69.435-70.565H169.131v108.348h122.174l105.478 105.347Zm-34.435-178.13Z"/></svg>