<svg xmlns="http://www.w3.org/2000/svg" height="48" viewBox="0 -960 960 960" width="48"  style="fill: #ae3923;"><path d="M568.957-112.653v-73.42q100.652-28.45 163.848-109.797Q796-377.218 796-481.435q0-103.782-63.195-185.195-63.196-81.413-163.848-109.863v-73.419q130.651 29.554 213.934 132.472 83.283 102.919 83.283 236.005 0 133.956-82.783 237.375-82.783 103.418-214.434 131.407ZM93.827-342.652v-275.261h170.391l224.739-224.044v723.914L264.218-342.652H93.826Zm455.13 37.782v-350.826q57.566 19.696 92.631 67.458t35.065 108.276q0 60.527-35.065 108.245Q606.523-324 548.957-304.87ZM405.218-633.521 300.74-534.174H177.566v108.348H300.74l104.478 100.347v-308.042ZM317.609-480Z"/></svg>